<?xml version="1.0" standalone="no"?>
<!DOCTYPE svg PUBLIC "-//W3C//DTD SVG 20010904//EN"
 "http://www.w3.org/TR/2001/REC-SVG-20010904/DTD/svg10.dtd">
<svg version="1.0" xmlns="http://www.w3.org/2000/svg"
 width="450.000000pt" height="445.000000pt" viewBox="0 0 450.000000 445.000000"
 preserveAspectRatio="xMidYMid meet">

<g transform="translate(0.000000,445.000000) scale(0.100000,-0.100000)"
fill="#000000" stroke="none">
<path d="M0 2225 l0 -2225 2250 0 2250 0 0 2225 0 2225 -2250 0 -2250 0 0
-2225z m2343 1824 c70 -7 127 -16 127 -21 0 -4 14 -8 30 -8 17 0 30 -4 30 -9
0 -5 22 -11 48 -15 67 -9 165 -35 172 -46 3 -5 25 -12 48 -16 23 -4 42 -10 42
-14 0 -10 47 -30 70 -30 10 0 20 -4 22 -10 2 -5 28 -18 58 -29 30 -11 56 -26
58 -33 2 -12 88 -58 107 -58 3 0 13 -8 23 -17 32 -30 62 -53 70 -53 4 0 13 -9
20 -20 7 -11 19 -20 26 -20 8 0 23 -11 34 -25 11 -14 24 -25 30 -25 5 0 35
-25 65 -55 30 -30 60 -55 66 -55 6 0 11 -6 11 -14 0 -8 14 -26 30 -39 17 -14
30 -30 30 -36 0 -6 9 -15 20 -21 11 -6 22 -21 26 -35 3 -13 12 -26 19 -29 7
-2 21 -21 30 -40 10 -20 23 -36 29 -36 7 0 23 -24 37 -52 13 -29 27 -55 30
-58 13 -11 49 -90 49 -110 0 -11 6 -20 14 -20 13 0 56 -94 56 -121 0 -6 6 -17
14 -24 7 -8 16 -32 20 -54 3 -23 10 -41 15 -41 5 0 12 -21 16 -47 4 -27 11
-50 16 -53 5 -3 18 -80 30 -170 17 -134 20 -198 16 -340 -5 -177 -31 -400 -47
-410 -5 -3 -12 -25 -16 -48 -4 -23 -10 -42 -14 -42 -4 0 -12 -25 -19 -55 -7
-30 -16 -55 -21 -55 -5 0 -11 -15 -15 -33 -12 -58 -37 -117 -51 -117 -8 0 -17
-12 -20 -27 -9 -36 -35 -86 -52 -96 -6 -4 -12 -13 -12 -18 0 -22 -33 -79 -45
-79 -7 0 -17 -12 -23 -27 -5 -16 -28 -48 -51 -72 -22 -24 -41 -48 -41 -53 0
-5 -21 -29 -47 -54 -27 -25 -52 -50 -58 -55 -5 -6 -30 -30 -53 -55 -24 -24
-49 -44 -55 -44 -7 0 -23 -15 -37 -34 -13 -18 -46 -42 -72 -54 -26 -12 -48
-28 -48 -36 0 -8 -22 -25 -50 -37 -27 -12 -50 -26 -50 -31 0 -4 -7 -8 -15 -8
-8 0 -24 -9 -35 -20 -11 -11 -26 -20 -34 -20 -8 0 -21 -6 -28 -14 -8 -7 -32
-19 -53 -26 -78 -25 -95 -33 -95 -41 0 -5 -11 -9 -25 -9 -14 0 -25 -4 -25 -8
0 -8 -106 -42 -133 -42 -9 0 -17 -4 -17 -8 0 -11 -175 -41 -282 -49 -56 -4
-78 -10 -78 -19 0 -11 -24 -14 -110 -14 l-110 0 0 420 0 420 26 0 c51 0 239
32 242 41 2 5 16 9 32 9 16 0 35 6 42 13 7 7 36 19 63 27 28 8 56 20 63 27 7
7 20 13 27 13 23 0 84 34 85 47 0 6 20 21 45 33 25 12 45 26 45 31 0 5 8 13
18 16 16 6 152 138 152 148 0 3 8 14 18 24 50 55 62 70 62 77 0 18 36 84 47
84 6 0 21 31 33 70 12 39 25 70 29 70 4 0 14 33 21 73 8 39 18 75 24 79 15 10
15 386 0 396 -6 4 -16 40 -23 80 -7 39 -16 72 -20 72 -4 0 -18 34 -30 75 -13
41 -29 75 -36 75 -7 0 -22 23 -33 50 -12 28 -26 50 -31 50 -6 0 -11 6 -11 13
0 7 -11 24 -25 39 -14 15 -25 29 -25 32 0 9 -122 126 -132 126 -5 0 -19 11
-29 24 -10 13 -30 27 -44 30 -14 4 -25 13 -25 20 0 8 -20 23 -45 35 -25 12
-45 25 -45 29 0 5 -22 14 -50 21 -27 7 -50 17 -50 21 0 5 -15 12 -32 15 -18 4
-35 11 -38 16 -7 11 -128 36 -214 45 -36 4 -66 11 -66 15 0 5 -16 9 -35 9
l-35 0 0 355 0 355 78 0 c42 0 134 -5 205 -11z m-353 -1784 l0 -1025 -55 0
c-30 0 -55 4 -55 8 0 4 -42 13 -92 20 -51 7 -94 17 -96 22 -2 6 -9 10 -15 10
-27 0 -157 45 -157 54 -1 13 -63 46 -86 46 -8 0 -17 6 -20 14 -3 7 -23 21 -44
31 -22 10 -42 26 -45 36 -3 10 -14 21 -24 24 -21 6 -131 110 -131 123 0 5 -9
17 -20 27 -11 10 -20 26 -20 37 0 10 -7 18 -15 18 -8 0 -25 21 -37 48 -12 26
-25 48 -29 50 -4 2 -15 30 -25 63 -10 32 -21 59 -26 59 -4 0 -8 9 -8 20 0 11
-4 20 -8 20 -13 0 -33 125 -39 247 -6 115 19 343 38 343 5 0 9 9 9 20 0 11 4
20 8 20 5 0 17 27 27 60 10 33 21 60 25 60 4 0 18 25 31 55 13 30 29 55 36 55
6 0 22 17 34 38 13 20 31 46 41 56 10 11 18 23 18 27 0 4 18 18 40 30 22 12
42 30 45 40 3 9 21 24 40 34 19 9 35 19 35 23 0 9 54 38 88 47 12 3 22 12 22
19 0 13 55 38 113 52 15 3 27 10 27 14 0 4 27 13 60 21 33 7 60 16 60 20 0 4
34 10 75 14 41 4 75 11 75 16 0 5 23 9 50 9 l50 0 0 -1025z m140 1016 c0 -5
34 -12 75 -16 41 -4 75 -10 75 -15 0 -4 23 -11 50 -15 28 -4 56 -12 63 -19 6
-6 41 -20 76 -31 41 -13 66 -26 69 -37 2 -10 10 -18 18 -18 19 0 94 -40 94
-50 0 -5 9 -12 21 -15 12 -4 38 -23 58 -43 21 -21 53 -51 73 -67 19 -17 41
-42 47 -55 7 -14 25 -36 40 -50 14 -14 35 -44 46 -67 11 -24 23 -43 27 -43 4
0 17 -31 29 -70 13 -38 28 -70 35 -70 16 0 45 -155 51 -276 8 -150 -24 -394
-52 -394 -6 0 -21 -34 -34 -75 -13 -41 -27 -75 -31 -75 -3 0 -14 -16 -23 -35
-9 -19 -21 -35 -27 -35 -5 0 -10 -7 -10 -16 0 -9 -11 -25 -25 -36 -14 -11 -25
-24 -25 -29 0 -9 -39 -49 -134 -136 -19 -17 -48 -39 -65 -49 -17 -10 -31 -21
-31 -25 0 -4 -15 -12 -32 -19 -57 -21 -78 -33 -78 -44 0 -11 -133 -56 -163
-56 -9 0 -17 -4 -19 -10 -1 -5 -45 -15 -95 -22 -51 -7 -93 -16 -93 -20 0 -4
-18 -8 -40 -8 l-40 0 0 1025 0 1025 35 0 c19 0 35 -4 35 -9z"/>
<path d="M2220 1920 l0 -410 30 0 30 0 0 348 c0 228 4 342 10 332 5 -8 10 -25
10 -37 0 -13 6 -23 14 -23 8 0 23 -29 37 -72 13 -40 29 -79 36 -86 7 -7 13
-21 13 -30 0 -23 23 -82 32 -82 4 0 8 -6 8 -14 0 -8 3 -16 8 -18 7 -3 52 -129
52 -148 0 -6 7 -18 15 -26 8 -9 15 -24 15 -35 0 -10 3 -19 8 -19 4 0 13 -13
20 -30 13 -29 43 -47 62 -35 11 7 15 721 4 749 -8 20 -21 20 -40 2 -11 -12
-14 -66 -15 -298 0 -214 -3 -276 -11 -253 -6 17 -14 32 -18 35 -4 3 -10 18
-14 35 -4 16 -12 32 -17 36 -5 3 -18 37 -29 75 -11 38 -25 71 -30 72 -6 2 -10
15 -10 28 0 13 -4 24 -9 24 -6 0 -18 26 -28 58 -9 31 -20 59 -24 62 -4 3 -17
37 -30 76 -20 62 -27 73 -54 83 -17 6 -41 11 -53 11 l-22 0 0 -410z"/>
</g>
</svg>
